<svg xmlns="http://www.w3.org/2000/svg" xmlns:xlink="http://www.w3.org/1999/xlink" version="1.1" id="Your_Icon" x="0px" y="0px" width="100px" height="100px" viewBox="0 0 100 100" enable-background="new 0 0 100 100" xml:space="preserve">
<g>
	<path d="M10,62c0,1.657,1.343,3,3,3h4c1.657,0,3-1.343,3-3V37c0-1.657-1.343-3-3-3h-4c-1.657,0-3,1.343-3,3V62z"/>
</g>
<g>
	<path d="M80,62c0,1.657,1.343,3,3,3h4c1.657,0,3-1.343,3-3V37c0-1.657-1.343-3-3-3h-4c-1.657,0-3,1.343-3,3V62z"/>
</g>
<g>
	<path d="M21,70c0,1.657,1.343,3,3,3h4c1.657,0,3-1.343,3-3V30c0-1.657-1.343-3-3-3h-4c-1.657,0-3,1.343-3,3V70z"/>
</g>
<g>
	<path d="M69,70c0,1.657,1.343,3,3,3h4c1.657,0,3-1.343,3-3V30c0-1.657-1.343-3-3-3h-4c-1.657,0-3,1.343-3,3V70z"/>
</g>
<g>
	<rect x="32" y="45" width="36" height="10"/>
	<rect x="10" y="45" width="10" height="10"/>
	<rect x="21" y="45" width="10" height="10"/>
	<rect x="80" y="45" width="10" height="10"/>
	<path d="M97,45h-6v10h6c1.657,0,3-1.343,3-3v-4C100,46.343,98.657,45,97,45z"/>
	<rect x="69" y="45" width="10" height="10"/>
	<path d="M9,45H3c-1.657,0-3,1.343-3,3v4c0,1.657,1.343,3,3,3h6V45z"/>
</g>
</svg>